# xmcd CD database file
#
# Track frame offsets:
#	150
#	17733
#	33109
#	49167
#	64397
#	80776
#	95572
#	110117
#	123924
#	137177
#	150935
#	161358
#	176701
#	190429
#	205768
#	219275
#	232977
#
# Disc length: 3441 seconds
#
# Revision: 0
# Processed by: cddbd v1.5.2PL0 Copyright (c) Steve Scherf et al.
# Submitted via: CDex 1.70beta2
#
DISCID=e80d6f11
DTITLE=The Bosshoss - Winter Deluxe Edition
DYEAR=2009
DGENRE=Country
TTITLE0=Last Day
TTITLE1=Eagleize it
TTITLE2=Boon and brain
TTITLE3=Jelly bean
TTITLE4=Break free
TTITLE5=21st century buttkickin love affair
TTITLE6=Go! go! go!
TTITLE7=Rock on rock
TTITLE8=Wolf call
TTITLE9=Close
TTITLE10=Quick Joey small
TTITLE11=Shake your hips
TTITLE12=Guitars and cars
TTITLE13=Crazy about Mary
TTITLE14=Let it snow
TTITLE15=Close
TTITLE16=Heroes
EXTD=YEAR: 2009
EXTT0=
EXTT1=
EXTT2=
EXTT3=
EXTT4=
EXTT5=
EXTT6=
EXTT7=
EXTT8=
EXTT9=
EXTT10=
EXTT11=
EXTT12=
EXTT13=
EXTT14=
EXTT15=
EXTT16=
PLAYORDER=
